<?xml version="1.0" encoding="UTF-8"?>
<svg version="1.1" xmlns="http://www.w3.org/2000/svg" width="342" height="115">
<path d="M0 0 C0.82628906 0.53367187 1.65257813 1.06734375 2.50390625 1.6171875 C4.23046875 2.74739583 5.95703125 3.87760417 7.68359375 5.0078125 C8.50988281 5.54148437 9.33617188 6.07515625 10.1875 6.625 C10.93708984 7.11613281 11.68667969 7.60726563 12.45898438 8.11328125 C14.51785543 9.40415277 14.51785543 9.40415277 16.7578125 9.79833984 C18.59375 10.3125 18.59375 10.3125 20.375 13.2265625 C20.9613442 14.45723364 21.53364289 15.69466816 22.09375 16.9375 C22.70057232 18.21543834 23.30863324 19.49278932 23.91796875 20.76953125 C24.47097656 21.93871094 25.02398437 23.10789062 25.59375 24.3125 C27.78450667 29.06123405 27.78450667 29.06123405 31.59375 32.3125 C31.97265625 34.60546875 31.97265625 34.60546875 32.15625 37.5 C32.36448055 40.73173815 32.61386952 43.38090638 33.53125 46.5 C33.62097056 50.53742502 31.61006351 52.40523459 29.0390625 55.3828125 C27.5319387 57.39502644 27.0190713 58.85872328 26.59375 61.3125 C25.706875 61.168125 24.82 61.02375 23.90625 60.875 C22.2665625 61.0915625 22.2665625 61.0915625 20.59375 61.3125 C19.40814525 62.9247384 19.40814525 62.9247384 18.40625 64.875 C17.2265625 66.8203125 17.2265625 66.8203125 15.59375 68.3125 C11.79862202 68.64578319 8.30937192 68.08685903 4.59375 67.3125 C4.39542797 72.41853642 4.39542797 72.41853642 5.59375 77.3125 C7.07875 77.8075 7.07875 77.8075 8.59375 78.3125 C8.59375 78.9725 8.59375 79.6325 8.59375 80.3125 C-0.54548003 83.25250966 -0.54548003 83.25250966 -4.671875 81.16796875 C-6.77380729 79.33498449 -8.59070647 77.4293465 -10.40625 75.3125 C-11.01210937 74.62671875 -11.61796875 73.9409375 -12.2421875 73.234375 C-13.42007809 71.88674472 -14.59213039 70.53398551 -15.7578125 69.17578125 C-19.13173582 65.36212859 -21.98482452 62.7613712 -26.96875 61.1875 C-28.103125 61.22875 -29.2375 61.27 -30.40625 61.3125 C-31.19 62.158125 -31.97375 63.00375 -32.78125 63.875 C-35.40625 66.3125 -35.40625 66.3125 -37.46875 66.23828125 C-39.8120624 65.68016124 -42.09899612 65.00307945 -44.40625 64.3125 C-45.56125 64.168125 -46.71625 64.02375 -47.90625 63.875 C-51.46767058 63.30262884 -54.54280461 62.30621742 -57.90234375 61.03125 C-61.37842313 60.03343626 -64.81164788 59.70560055 -68.40625 59.3125 C-69.39022585 56.7517555 -70.36854967 54.18908508 -71.34375 51.625 C-71.62154297 50.90376953 -71.89933594 50.18253906 -72.18554688 49.43945312 C-75.91683549 39.5942458 -75.40545936 31.13401352 -71.40625 21.3125 C-69.5275994 18.87176318 -67.85140932 17.34006354 -65.30859375 15.63671875 C-63.30220378 14.40691216 -63.30220378 14.40691216 -62.07519531 12.3684082 C-60.13107904 9.97352769 -58.64028741 9.24834559 -55.80078125 8.09375 C-54.89908203 7.71863281 -53.99738281 7.34351563 -53.06835938 6.95703125 C-52.12798828 6.57933594 -51.18761719 6.20164062 -50.21875 5.8125 C-48.37013203 5.05442433 -46.52246013 4.29403716 -44.67578125 3.53125 C-43.77327637 3.16410889 -42.87077148 2.79696777 -41.94091797 2.41870117 C-39.67467993 1.42965046 -37.6060481 0.3104238 -35.46484375 -0.91796875 C-30.43109988 -3.49593136 -25.21179978 -3.39738156 -19.65625 -3.5 C-18.11517578 -3.55704102 -18.11517578 -3.55704102 -16.54296875 -3.61523438 C-9.91001763 -3.81846039 -5.64073171 -3.69581906 0 0 Z M-20.78125 -1.1875 C-21.84085938 -1.0946875 -22.90046875 -1.001875 -23.9921875 -0.90625 C-24.78882813 -0.8340625 -25.58546875 -0.761875 -26.40625 -0.6875 C-22.59012615 2.56441199 -18.17325109 4.42877147 -13.65625 6.5 C-12.86347656 6.86802734 -12.07070312 7.23605469 -11.25390625 7.61523438 C-9.30661728 8.51849492 -7.35669011 9.4160641 -5.40625 10.3125 C-5.54933594 9.0440625 -5.69242188 7.775625 -5.83984375 6.46875 C-5.96057251 5.39850586 -5.96057251 5.39850586 -6.08374023 4.30664062 C-6.45263756 2.02567668 -7.18291879 0.26982993 -8.40625 -1.6875 C-12.56631467 -1.73747075 -16.63783546 -1.55580351 -20.78125 -1.1875 Z M-5.40625 -0.6875 C-5.2825 0.55 -5.15875 1.7875 -5.03125 3.0625 C-4.96164063 3.75859375 -4.89203125 4.4546875 -4.8203125 5.171875 C-4.4272093 7.71927111 -4.4272093 7.71927111 -2.40625 11.3125 C2.87375 11.3125 8.15375 11.3125 13.59375 11.3125 C11.29711082 9.01586082 9.73945885 7.65072804 7.0546875 6.05078125 C6.39210938 5.65439453 5.72953125 5.25800781 5.046875 4.84960938 C4.36109375 4.44548828 3.6753125 4.04136719 2.96875 3.625 C2.27523437 3.20927734 1.58171875 2.79355469 0.8671875 2.36523438 C-2.08544317 0.25907455 -2.08544317 0.25907455 -5.40625 -0.6875 Z M-38.4140625 2.5 C-39.40019531 2.95117188 -40.38632812 3.40234375 -41.40234375 3.8671875 C-42.95115234 4.58261719 -42.95115234 4.58261719 -44.53125 5.3125 C-46.09166016 6.02792969 -46.09166016 6.02792969 -47.68359375 6.7578125 C-50.25937232 7.9393623 -52.83349135 9.12439235 -55.40625 10.3125 C-55.40625 10.9725 -55.40625 11.6325 -55.40625 12.3125 C-53.1615127 12.75664588 -50.9100554 13.16693415 -48.65625 13.5625 C-47.40328125 13.79453125 -46.1503125 14.0265625 -44.859375 14.265625 C-41.41032332 14.65577178 -41.41032332 14.65577178 -39.15625 12.6875 C-37.33153084 10.21109543 -35.69767709 7.72496498 -34.15625 5.0625 C-33.63546875 4.17046875 -33.1146875 3.2784375 -32.578125 2.359375 C-31.99804688 1.34617187 -31.99804688 1.34617187 -31.40625 0.3125 C-34.14303725 0.3125 -35.92690466 1.35647915 -38.4140625 2.5 Z M-28.40625 1.3125 C-27.9309912 2.95946604 -27.45093109 4.60504728 -26.96875 6.25 C-26.70191406 7.16652344 -26.43507812 8.08304688 -26.16015625 9.02734375 C-25.61598949 11.2527493 -25.61598949 11.2527493 -24.40625 12.3125 C-21.70516496 12.221584 -19.03694689 12.07509234 -16.34375 11.875 C-15.58513672 11.82279297 -14.82652344 11.77058594 -14.04492188 11.71679688 C-12.16503278 11.58674165 -10.28559315 11.45021962 -8.40625 11.3125 C-11.83080876 8.51606382 -15.58754771 6.57245711 -19.53125 4.625 C-20.16417969 4.30466797 -20.79710937 3.98433594 -21.44921875 3.65429688 C-24.76632009 1.89377134 -24.76632009 1.89377134 -28.40625 1.3125 Z M-31.40625 2.3125 C-32.68631797 4.09648614 -33.88285351 5.94103906 -35.03125 7.8125 C-35.66289063 8.8334375 -36.29453125 9.854375 -36.9453125 10.90625 C-37.42742188 11.7003125 -37.90953125 12.494375 -38.40625 13.3125 C-35.31146121 14.34409626 -33.87993607 14.28732862 -30.71875 13.875 C-29.91050781 13.77316406 -29.10226563 13.67132813 -28.26953125 13.56640625 C-27.65464844 13.48261719 -27.03976563 13.39882813 -26.40625 13.3125 C-26.8703125 11.4253125 -26.8703125 11.4253125 -27.34375 9.5 C-27.51777344 8.79230469 -27.69179687 8.08460937 -27.87109375 7.35546875 C-28.31635705 5.65566798 -28.85058985 3.97948046 -29.40625 2.3125 C-30.06625 2.3125 -30.72625 2.3125 -31.40625 2.3125 Z M-1.40625 12.3125 C2.00072697 15.03808157 4.67765876 17.05907784 8.40625 19.0625 C9.19644531 19.49046875 9.98664063 19.9184375 10.80078125 20.359375 C11.39246094 20.67390625 11.98414062 20.9884375 12.59375 21.3125 C14.95285353 17.0487719 14.95285353 17.0487719 15.59375 12.3125 C9.98375 12.3125 4.37375 12.3125 -1.40625 12.3125 Z M-57.40625 13.3125 C-57.12473084 15.43886813 -56.83071737 17.56358528 -56.53125 19.6875 C-56.36882813 20.87085938 -56.20640625 22.05421875 -56.0390625 23.2734375 C-55.6759915 26.40816659 -55.6759915 26.40816659 -53.40625 28.3125 C-51.56677663 26.52677748 -49.73467259 24.73447551 -47.90625 22.9375 C-47.38160156 22.42960937 -46.85695313 21.92171875 -46.31640625 21.3984375 C-44.97471819 20.07417396 -43.68629185 18.69644135 -42.40625 17.3125 C-42.40625 16.6525 -42.40625 15.9925 -42.40625 15.3125 C-44.1553997 14.97473316 -45.90561145 14.64246329 -47.65625 14.3125 C-48.63078125 14.126875 -49.6053125 13.94125 -50.609375 13.75 C-53.59309279 13.20946983 -53.59309279 13.20946983 -57.40625 13.3125 Z M-17.15625 13.25 C-18.32671875 13.44464844 -19.4971875 13.63929687 -20.703125 13.83984375 C-22.04117188 14.07380859 -22.04117188 14.07380859 -23.40625 14.3125 C-23.06397428 17.28315509 -23.06397428 17.28315509 -22.40625 20.3125 C-21.74625 20.6425 -21.08625 20.9725 -20.40625 21.3125 C-17.95586707 20.06967988 -15.632925 18.78367661 -13.28125 17.375 C-12.29318359 16.79588867 -12.29318359 16.79588867 -11.28515625 16.20507812 C-9.654637 15.24803422 -8.02988816 14.28117185 -6.40625 13.3125 C-10.17996512 11.9767543 -13.26456347 12.58841329 -17.15625 13.25 Z M-63.96875 17.6875 C-64.60941406 18.31398438 -65.25007813 18.94046875 -65.91015625 19.5859375 C-67.62453848 21.18365151 -67.62453848 21.18365151 -67.40625 23.3125 C-63.77625 24.9625 -60.14625 26.6125 -56.40625 28.3125 C-57.01739605 21.09639572 -57.01739605 21.09639572 -59.40625 14.3125 C-61.33966947 14.3125 -62.68089127 16.41264994 -63.96875 17.6875 Z M-14.03125 18.3125 C-14.64226562 18.6940625 -15.25328125 19.075625 -15.8828125 19.46875 C-17.39311737 20.41269054 -18.90001128 21.36208458 -20.40625 22.3125 C-19.77235765 25.81094386 -18.35447306 28.15336876 -16.34375 31.0625 C-15.79589844 31.86171875 -15.24804688 32.6609375 -14.68359375 33.484375 C-14.26207031 34.08765625 -13.84054688 34.6909375 -13.40625 35.3125 C-11.20856483 33.11481483 -10.79514315 31.88497768 -9.8984375 28.9609375 C-9.63417969 28.11015625 -9.36992188 27.259375 -9.09765625 26.3828125 C-8.82824219 25.49335937 -8.55882813 24.60390625 -8.28125 23.6875 C-8.00410156 22.7903125 -7.72695312 21.893125 -7.44140625 20.96875 C-6.75740974 18.75165786 -6.07928328 16.53293999 -5.40625 14.3125 C-8.74628617 14.3125 -11.27950251 16.57207851 -14.03125 18.3125 Z M16.59375 14.3125 C15.60375 17.2825 14.61375 20.2525 13.59375 23.3125 C15.37899649 24.50963017 17.1721528 25.69497279 18.96875 26.875 C19.96648437 27.53628906 20.96421875 28.19757812 21.9921875 28.87890625 C23.27996094 29.58853516 23.27996094 29.58853516 24.59375 30.3125 C25.25375 29.9825 25.91375 29.6525 26.59375 29.3125 C25.30856447 26.99617725 24.01603734 24.68453058 22.71875 22.375 C22.35394531 21.71564453 21.98914063 21.05628906 21.61328125 20.37695312 C19.73957102 16.73313631 19.73957102 16.73313631 16.59375 14.3125 Z M-33.65625 14.8125 C-34.89375 14.9775 -36.13125 15.1425 -37.40625 15.3125 C-34.44278214 17.78436455 -31.86583311 18.97498361 -28.15625 20 C-27.26421875 20.25136719 -26.3721875 20.50273438 -25.453125 20.76171875 C-24.77765625 20.94347656 -24.1021875 21.12523437 -23.40625 21.3125 C-24.06625 19.0025 -24.72625 16.6925 -25.40625 14.3125 C-28.29060938 14.3125 -30.82804168 14.43540556 -33.65625 14.8125 Z M-4.40625 15.3125 C-5.41361628 18.24752595 -6.41085504 21.18589461 -7.40625 24.125 C-7.83550781 25.37506836 -7.83550781 25.37506836 -8.2734375 26.65039062 C-8.54414062 27.45283203 -8.81484375 28.25527344 -9.09375 29.08203125 C-9.47080078 30.18961792 -9.47080078 30.18961792 -9.85546875 31.31958008 C-10.53944151 33.44982879 -10.53944151 33.44982879 -10.40625 36.3125 C-8.30236431 36.36652274 -6.19808286 36.40530256 -4.09375 36.4375 C-2.92199219 36.46070312 -1.75023438 36.48390625 -0.54296875 36.5078125 C2.75768661 36.56570618 2.75768661 36.56570618 5.59375 34.3125 C4.31262169 31.32869074 3.01711097 28.35134652 1.71875 25.375 C1.35394531 24.52486328 0.98914063 23.67472656 0.61328125 22.79882812 C0.25878906 21.98994141 -0.09570312 21.18105469 -0.4609375 20.34765625 C-0.78562012 19.5987915 -1.11030273 18.84992676 -1.44482422 18.07836914 C-2.28472692 16.1350529 -2.28472692 16.1350529 -4.40625 15.3125 Z M-1.40625 15.3125 C1.10806409 21.71865131 3.74819808 28.0462314 6.59375 34.3125 C8.82714896 33.47995087 8.82714896 33.47995087 9.4453125 31.02734375 C9.70054688 30.11082031 9.95578125 29.19429687 10.21875 28.25 C10.47914062 27.33089844 10.73953125 26.41179688 11.0078125 25.46484375 C11.20117188 24.75457031 11.39453125 24.04429688 11.59375 23.3125 C9.8063538 21.97344733 8.01370047 20.64140934 6.21875 19.3125 C5.22101563 18.57 4.22328125 17.8275 3.1953125 17.0625 C0.83973283 15.1264515 0.83973283 15.1264515 -1.40625 15.3125 Z M-47.03125 22.5 C-47.55976562 22.98275391 -48.08828125 23.46550781 -48.6328125 23.96289062 C-51.6702669 26.86960876 -51.6702669 26.86960876 -52.46484375 30.84375 C-51.22367926 33.73827384 -49.70631551 36.08513795 -47.84375 38.625 C-46.88275391 39.94951172 -46.88275391 39.94951172 -45.90234375 41.30078125 C-45.40863281 41.96464844 -44.91492188 42.62851562 -44.40625 43.3125 C-40.09138911 39.35721085 -35.80432121 34.99020272 -35.14453125 28.89453125 C-35.45090047 25.87199317 -36.35537776 24.09771099 -37.90625 21.5 C-38.3703125 20.70980469 -38.834375 19.91960938 -39.3125 19.10546875 C-39.6734375 18.51378906 -40.034375 17.92210938 -40.40625 17.3125 C-42.79823778 17.3125 -45.31756964 20.84782549 -47.03125 22.5 Z M-38.40625 17.3125 C-37.25039715 21.22461733 -36.05090038 24.1870041 -33.40625 27.3125 C-30.47745629 26.68490135 -28.04529371 25.72627341 -25.40625 24.3125 C-25.40625 23.6525 -25.40625 22.9925 -25.40625 22.3125 C-27.19578185 21.47459211 -28.98794695 20.64230604 -30.78125 19.8125 C-31.77898438 19.3484375 -32.77671875 18.884375 -33.8046875 18.40625 C-36.24317626 17.1833127 -36.24317626 17.1833127 -38.40625 17.3125 Z M-69.40625 24.3125 C-70.72625 28.9325 -72.04625 33.5525 -73.40625 38.3125 C-69.56606797 36.77642719 -66.18776668 35.17936467 -62.59375 33.1875 C-61.61792969 32.64867187 -60.64210938 32.10984375 -59.63671875 31.5546875 C-58.90066406 31.14476562 -58.16460937 30.73484375 -57.40625 30.3125 C-62.86466088 25.96467393 -62.86466088 25.96467393 -69.40625 24.3125 Z M-27.46875 26.8125 C-28.56896484 27.50859375 -28.56896484 27.50859375 -29.69140625 28.21875 C-30.25730469 28.5796875 -30.82320312 28.940625 -31.40625 29.3125 C-29.93494627 33.6698226 -27.57544385 37.03184134 -24.78125 40.625 C-24.15089844 41.44967773 -24.15089844 41.44967773 -23.5078125 42.29101562 C-22.47904961 43.63542168 -21.4433491 44.97451413 -20.40625 46.3125 C-17.53137883 43.80620205 -15.64947047 41.99171567 -14.3515625 38.3671875 C-14.42442717 34.29717508 -15.79343418 32.61398456 -18.28125 29.4375 C-19.02117187 28.47070312 -19.76109375 27.50390625 -20.5234375 26.5078125 C-21.14476562 25.78335938 -21.76609375 25.05890625 -22.40625 24.3125 C-24.30570294 24.3125 -25.91534875 25.82621349 -27.46875 26.8125 Z M12.59375 25.3125 C10.30329986 30.12459901 10.30329986 30.12459901 9.59375 35.3125 C17.51375 34.8175 17.51375 34.8175 25.59375 34.3125 C24.3923665 30.70834951 23.33231012 30.16543989 20.21875 28.125 C19.42726563 27.59519531 18.63578125 27.06539062 17.8203125 26.51953125 C15.57629933 25.07420938 15.57629933 25.07420938 12.59375 25.3125 Z M-34.40625 31.3125 C-36.23130013 33.71810586 -36.23130013 33.71810586 -38.03125 36.6875 C-38.66289063 37.68523438 -39.29453125 38.68296875 -39.9453125 39.7109375 C-41.56946318 42.10585831 -41.56946318 42.10585831 -41.40625 44.3125 C-34.75073534 45.59384207 -28.15234618 46.64894956 -21.40625 47.3125 C-23.58804986 43.5712946 -25.94712191 40.02085268 -28.46875 36.5 C-29.16097656 35.52417969 -29.85320312 34.54835937 -30.56640625 33.54296875 C-31.47712891 32.43888672 -31.47712891 32.43888672 -32.40625 31.3125 C-33.06625 31.3125 -33.72625 31.3125 -34.40625 31.3125 Z M-65.03125 35.8125 C-65.64226562 36.14636719 -66.25328125 36.48023438 -66.8828125 36.82421875 C-68.39266801 37.64992098 -69.89972848 38.48073037 -71.40625 39.3125 C-69.20346592 41.5966369 -67.37267998 43.10738782 -64.40625 44.3125 C-63.41625 44.3125 -62.42625 44.3125 -61.40625 44.3125 C-59.75625 40.3525 -58.10625 36.3925 -56.40625 32.3125 C-59.66539119 32.3125 -62.23955149 34.26752155 -65.03125 35.8125 Z M-55.40625 33.3125 C-56.30315912 34.86252751 -57.1730697 36.42819918 -58.03125 38 C-58.51851562 38.87011719 -59.00578125 39.74023438 -59.5078125 40.63671875 C-60.66460611 43.29259266 -60.66460611 43.29259266 -59.75 46 C-57.91741125 49.15375738 -55.51039426 50.49050228 -52.40625 52.3125 C-52.95506057 45.96030958 -53.57136613 39.63376362 -54.40625 33.3125 C-54.73625 33.3125 -55.06625 33.3125 -55.40625 33.3125 Z M-53.40625 34.3125 C-53.20953236 46.83295634 -53.20953236 46.83295634 -47.7578125 57.421875 C-45.04174289 59.33499344 -42.42745908 60.93782422 -39.40625 62.3125 C-38.10202585 60.24018557 -38.10202585 60.24018557 -39.0859375 57.4765625 C-42.13595675 48.44611334 -46.04389668 41.48986552 -52.40625 34.3125 C-52.73625 34.3125 -53.06625 34.3125 -53.40625 34.3125 Z M16.28125 35.8125 C14.67830078 35.95171875 14.67830078 35.95171875 13.04296875 36.09375 C12.23472656 36.1659375 11.42648438 36.238125 10.59375 36.3125 C12.04337058 39.21174116 14.04616526 39.62578874 16.96875 40.9375 C17.94585937 41.38351563 18.92296875 41.82953125 19.9296875 42.2890625 C22.584846 43.49180609 22.584846 43.49180609 25.59375 43.3125 C26.85039978 40.40649739 27.59375 38.51645416 27.59375 35.3125 C23.79089358 35.25605686 20.06912004 35.47950044 16.28125 35.8125 Z M-9.40625 38.3125 C-5.52832712 43.24158146 -1.64508167 46.8548711 3.59375 50.3125 C3.93247513 48.89711283 4.26449624 47.48012037 4.59375 46.0625 C4.779375 45.27359375 4.965 44.4846875 5.15625 43.671875 C5.71529828 41.05693998 5.71529828 41.05693998 5.59375 37.3125 C0.47583358 37.20587674 -4.33553099 37.60082014 -9.40625 38.3125 Z M6.59375 38.3125 C6.26375 42.6025 5.93375 46.8925 5.59375 51.3125 C11.03875 50.8175 11.03875 50.8175 16.59375 50.3125 C14.22622981 46.00023107 11.92361214 41.97534835 8.59375 38.3125 C7.93375 38.3125 7.27375 38.3125 6.59375 38.3125 Z M28.59375 38.3125 C27.1331215 40.95988916 26.59375 42.20698334 26.59375 45.3125 C27.91375 45.6425 29.23375 45.9725 30.59375 46.3125 C30.76056109 43.39597826 30.76056109 43.39597826 30.59375 40.3125 C29.93375 39.6525 29.27375 38.9925 28.59375 38.3125 Z M11.59375 39.3125 C12.86754719 42.05056872 14.24618188 44.27847375 16.21875 46.5625 C17.394375 47.92375 17.394375 47.92375 18.59375 49.3125 C20.24375 48.9825 21.89375 48.6525 23.59375 48.3125 C23.52029878 46.38196536 23.52029878 46.38196536 22.59375 44.3125 C20.06355806 42.73228717 20.06355806 42.73228717 17.03125 41.5625 C16.01933594 41.13453125 15.00742188 40.7065625 13.96484375 40.265625 C13.18238281 39.95109375 12.39992188 39.6365625 11.59375 39.3125 Z M-11.40625 40.3125 C-11.26445962 42.54192748 -11.11765302 44.77103628 -10.96875 47 C-10.88753906 48.24136719 -10.80632812 49.48273437 -10.72265625 50.76171875 C-10.46133683 53.69430337 -10.05826621 56.44691617 -9.40625 59.3125 C-4.79111888 57.99389111 -1.30727388 56.09894563 2.59375 53.3125 C-1.20639774 48.757713 -5.06290546 44.35970741 -9.40625 40.3125 C-10.06625 40.3125 -10.72625 40.3125 -11.40625 40.3125 Z M-14.40625 41.3125 C-16.25202344 43.38899512 -17.31470859 44.88912099 -17.90625 47.625 C-17.17632577 51.54834274 -15.0173173 54.34187589 -12.40625 57.3125 C-12.07625 57.3125 -11.74625 57.3125 -11.40625 57.3125 C-11.51966491 54.83229503 -11.64639686 52.35405031 -11.78125 49.875 C-11.8121875 49.16794922 -11.843125 48.46089844 -11.875 47.73242188 C-11.97905629 45.92010812 -12.18544892 44.11432012 -12.40625 42.3125 C-13.06625 41.9825 -13.72625 41.6525 -14.40625 41.3125 Z M-72.40625 42.3125 C-71.08625 45.9425 -69.76625 49.5725 -68.40625 53.3125 C-67.41625 53.3125 -66.42625 53.3125 -65.40625 53.3125 C-63.64162317 50.22440305 -63.40625 49.07937864 -63.40625 45.3125 C-66.37625 44.3225 -69.34625 43.3325 -72.40625 42.3125 Z M-40.40625 46.3125 C-39.0140625 48.1996875 -39.0140625 48.1996875 -37.59375 50.125 C-36.81064453 51.18654297 -36.81064453 51.18654297 -36.01171875 52.26953125 C-34.57496123 54.09781393 -33.08809237 55.71146688 -31.40625 57.3125 C-27.58688472 55.75646229 -25.14580562 53.35645069 -22.40625 50.3125 C-22.40625 49.6525 -22.40625 48.9925 -22.40625 48.3125 C-28.34625 47.6525 -34.28625 46.9925 -40.40625 46.3125 Z M25.59375 46.3125 C25.26375 46.9725 24.93375 47.6325 24.59375 48.3125 C25.91375 47.9825 27.23375 47.6525 28.59375 47.3125 C27.60375 46.9825 26.61375 46.6525 25.59375 46.3125 Z M-62.40625 48.3125 C-64.76535353 52.5762281 -64.76535353 52.5762281 -65.40625 57.3125 C-60.78625 58.3025 -56.16625 59.2925 -51.40625 60.3125 C-50.88005064 55.52461826 -50.88005064 55.52461826 -53.05078125 53.29296875 C-53.76621094 52.70128906 -54.48164062 52.10960937 -55.21875 51.5 C-55.92644531 50.89542969 -56.63414063 50.29085937 -57.36328125 49.66796875 C-59.414264 48.03606977 -59.414264 48.03606977 -62.40625 48.3125 Z M-40.40625 49.3125 C-39.41581295 54.14878305 -38.44926154 58.78868873 -36.40625 63.3125 C-34.75625 61.6625 -33.10625 60.0125 -31.40625 58.3125 C-31.88835938 57.83039063 -32.37046875 57.34828125 -32.8671875 56.8515625 C-35.38020833 54.33854167 -37.89322917 51.82552083 -40.40625 49.3125 Z M-19.40625 50.3125 C-19.73625 53.6125 -20.06625 56.9125 -20.40625 60.3125 C-17.76625 60.3125 -15.12625 60.3125 -12.40625 60.3125 C-13.19108659 58.82969804 -13.98434334 57.3513502 -14.78125 55.875 C-15.22210938 55.05128906 -15.66296875 54.22757813 -16.1171875 53.37890625 C-17.24043559 51.17783422 -17.24043559 51.17783422 -19.40625 50.3125 Z M23.59375 50.3125 C23.26375 51.9625 22.93375 53.6125 22.59375 55.3125 C24.07875 56.3025 24.07875 56.3025 25.59375 57.3125 C27.24375 54.6725 28.89375 52.0325 30.59375 49.3125 C27.97261292 49.3125 26.08439888 49.62542445 23.59375 50.3125 Z M-22.40625 51.3125 C-22.73625 52.3025 -23.06625 53.2925 -23.40625 54.3125 C-24.06625 54.3125 -24.72625 54.3125 -25.40625 54.3125 C-26.06625 55.6325 -26.72625 56.9525 -27.40625 58.3125 C-24.93125 59.3025 -24.93125 59.3025 -22.40625 60.3125 C-22.07625 57.3425 -21.74625 54.3725 -21.40625 51.3125 C-21.73625 51.3125 -22.06625 51.3125 -22.40625 51.3125 Z M9.59375 52.3125 C9.59375 52.9725 9.59375 53.6325 9.59375 54.3125 C13.75809334 56.79204966 13.75809334 56.79204966 18.46875 57 C19.520625 56.6596875 19.520625 56.6596875 20.59375 56.3125 C19.93375 54.6625 19.27375 53.0125 18.59375 51.3125 C15.48147805 51.3125 12.65222848 51.76877049 9.59375 52.3125 Z M-2.96875 57.8125 C-3.98066406 58.4621875 -4.99257812 59.111875 -6.03515625 59.78125 C-6.81761719 60.2865625 -7.60007812 60.791875 -8.40625 61.3125 C-5.82840154 63.96002004 -3.48976902 66.25682065 -0.40625 68.3125 C1.74649948 68.00409401 1.74649948 68.00409401 3.59375 67.3125 C4.43171731 62.65712607 4.6099192 58.94171525 3.59375 54.3125 C1.35598705 54.3125 -1.18856778 56.66663558 -2.96875 57.8125 Z M7.59375 55.3125 C9.57375 58.2825 11.55375 61.2525 13.59375 64.3125 C14.91375 63.6525 16.23375 62.9925 17.59375 62.3125 C17.44717916 60.34635733 17.44717916 60.34635733 16.59375 58.3125 C14.51340706 57.1749787 14.51340706 57.1749787 12.03125 56.5625 C10.566875 56.15 9.1025 55.7375 7.59375 55.3125 Z M5.59375 56.3125 C5.42697718 59.72906024 5.42697718 59.72906024 5.59375 63.3125 C7.43258881 65.59978734 7.43258881 65.59978734 10.21875 65.4375 C11.0025 65.39625 11.78625 65.355 12.59375 65.3125 C11.61876855 63.8097763 10.63865611 62.31038037 9.65625 60.8125 C9.11097656 59.9771875 8.56570312 59.141875 8.00390625 58.28125 C7.53855469 57.6315625 7.07320313 56.981875 6.59375 56.3125 C6.26375 56.3125 5.93375 56.3125 5.59375 56.3125 Z M21.59375 56.3125 C22.59375 58.3125 22.59375 58.3125 22.59375 58.3125 Z M-49.40625 57.3125 C-49.07625 58.6325 -48.74625 59.9525 -48.40625 61.3125 C-45.43625 61.8075 -45.43625 61.8075 -42.40625 62.3125 C-44.02964805 60.60365995 -45.69944053 58.93803283 -47.40625 57.3125 C-48.06625 57.3125 -48.72625 57.3125 -49.40625 57.3125 Z M-18.40625 62.3125 C-17.02436547 65.52293882 -15.48203097 67.36186365 -12.78125 69.5625 C-12.14960937 70.08328125 -11.51796875 70.6040625 -10.8671875 71.140625 C-10.38507813 71.52734375 -9.90296875 71.9140625 -9.40625 72.3125 C-9.54674518 70.83281676 -9.69379826 69.35375484 -9.84375 67.875 C-9.92496094 67.05128906 -10.00617188 66.22757812 -10.08984375 65.37890625 C-10.19555815 63.32587975 -10.19555815 63.32587975 -11.40625 62.3125 C-13.73922433 62.27157063 -16.07330225 62.27008277 -18.40625 62.3125 Z M-8.40625 64.3125 C-8.40625 66.9525 -8.40625 69.5925 -8.40625 72.3125 C-7.41625 72.8075 -7.41625 72.8075 -6.40625 73.3125 C-4.37480359 72.37803465 -2.37091413 71.38025224 -0.40625 70.3125 C-3.88361026 66.53215377 -3.88361026 66.53215377 -8.40625 64.3125 Z M-4.40625 73.3125 C-4.40625 73.9725 -4.40625 74.6325 -4.40625 75.3125 C-3.08625 74.9825 -1.76625 74.6525 -0.40625 74.3125 C-0.40625 73.6525 -0.40625 72.9925 -0.40625 72.3125 C-2.4807856 72.1634288 -2.4807856 72.1634288 -4.40625 73.3125 Z M1.59375 72.3125 C1.59375 73.6325 1.59375 74.9525 1.59375 76.3125 C2.25375 75.9825 2.91375 75.6525 3.59375 75.3125 C2.93375 74.3225 2.27375 73.3325 1.59375 72.3125 Z M-3.40625 77.3125 C-2.74625 77.9725 -2.08625 78.6325 -1.40625 79.3125 C-1.40625 78.6525 -1.40625 77.9925 -1.40625 77.3125 C-2.06625 77.3125 -2.72625 77.3125 -3.40625 77.3125 Z M0.59375 77.3125 C0.26375 77.9725 -0.06625 78.6325 -0.40625 79.3125 C0.91375 78.9825 2.23375 78.6525 3.59375 78.3125 C2.60375 77.9825 1.61375 77.6525 0.59375 77.3125 Z " fill="#C97A60" transform="translate(95.40625,13.6875)"/>
<path d="M0 0 C2.31 0 4.62 0 7 0 C7 4.62 7 9.24 7 14 C10.63 14 14.26 14 18 14 C20.31 9.38 22.62 4.76 25 0 C27.64 0 30.28 0 33 0 C33.96345444 1.87237371 34.92053102 3.7480299 35.875 5.625 C36.40867188 6.66914062 36.94234375 7.71328125 37.4921875 8.7890625 C38.91454291 11.81801625 40.0122001 14.80643334 41 18 C38.69 18 36.38 18 34 18 C33.505 16.515 33.505 16.515 33 15 C30.36 15 27.72 15 25 15 C24.67 15.99 24.34 16.98 24 18 C16.08 18 8.16 18 0 18 C0 12.06 0 6.12 0 0 Z M28 7 C28 7.99 28 8.98 28 10 C28.66 10 29.32 10 30 10 C30 9.01 30 8.02 30 7 C29.34 7 28.68 7 28 7 Z " fill="#1C1C1C" transform="translate(164,55)"/>
<path d="M0 0 C0.66386719 0.40283203 1.32773438 0.80566406 2.01171875 1.22070312 C3.03458984 1.85202148 3.03458984 1.85202148 4.078125 2.49609375 C4.77550781 2.92083984 5.47289063 3.34558594 6.19140625 3.78320312 C7.90648217 4.82869461 9.61768973 5.88052726 11.328125 6.93359375 C10.668125 7.59359375 10.008125 8.25359375 9.328125 8.93359375 C5.038125 6.29359375 0.748125 3.65359375 -3.671875 0.93359375 C-3.176875 5.88359375 -3.176875 5.88359375 -2.671875 10.93359375 C-3.331875 10.93359375 -3.991875 10.93359375 -4.671875 10.93359375 C-5.661875 7.30359375 -6.651875 3.67359375 -7.671875 -0.06640625 C-15.591875 0.42859375 -15.591875 0.42859375 -23.671875 0.93359375 C-15.256875 4.89359375 -15.256875 4.89359375 -6.671875 8.93359375 C-6.671875 9.92359375 -6.671875 10.91359375 -6.671875 11.93359375 C-9.79704047 10.4547765 -12.9219791 8.97548053 -16.046875 7.49609375 C-16.93632813 7.07521484 -17.82578125 6.65433594 -18.7421875 6.22070312 C-19.59296875 5.81787109 -20.44375 5.41503906 -21.3203125 5 C-22.10583496 4.62818604 -22.89135742 4.25637207 -23.70068359 3.87329102 C-25.030504 3.23934517 -26.35420748 2.59242751 -27.671875 1.93359375 C-27.32125 2.51109375 -26.970625 3.08859375 -26.609375 3.68359375 C-25.52270093 6.29161151 -25.74122367 7.32777004 -26.671875 9.93359375 C-28.1325035 7.28620459 -28.671875 6.03911041 -28.671875 2.93359375 C-29.331875 2.93359375 -29.991875 2.93359375 -30.671875 2.93359375 C-30.919375 3.63484375 -31.166875 4.33609375 -31.421875 5.05859375 C-32.84367738 8.32873923 -34.54433788 11.07471575 -36.671875 13.93359375 C-37.331875 13.93359375 -37.991875 13.93359375 -38.671875 13.93359375 C-37.11485569 9.26253583 -34.58740127 5.8465369 -31.671875 1.93359375 C-38.13819672 4.60327649 -44.58152393 7.29282668 -50.9296875 10.234375 C-52.671875 10.93359375 -52.671875 10.93359375 -54.671875 10.93359375 C-54.671875 11.59359375 -54.671875 12.25359375 -54.671875 12.93359375 C-50.711875 13.26359375 -46.751875 13.59359375 -42.671875 13.93359375 C-48.205189 16.70025075 -50.75360369 15.33528959 -56.671875 13.93359375 C-56.011875 17.23359375 -55.351875 20.53359375 -54.671875 23.93359375 C-55.331875 24.26359375 -55.991875 24.59359375 -56.671875 24.93359375 C-57.331875 21.96359375 -57.991875 18.99359375 -58.671875 15.93359375 C-59.80625 16.88234375 -60.940625 17.83109375 -62.109375 18.80859375 C-62.74746094 19.34226562 -63.38554688 19.8759375 -64.04296875 20.42578125 C-65.77992504 21.85586945 -65.77992504 21.85586945 -66.671875 23.93359375 C-65.764375 24.20171875 -64.856875 24.46984375 -63.921875 24.74609375 C-60.95715537 25.82935669 -59.0548996 26.91718832 -56.671875 28.93359375 C-57.661875 29.42859375 -57.661875 29.42859375 -58.671875 29.93359375 C-62.12625631 28.4895491 -65.35439523 26.67739722 -68.671875 24.93359375 C-69.661875 29.22359375 -70.651875 33.51359375 -71.671875 37.93359375 C-66.721875 35.62359375 -61.771875 33.31359375 -56.671875 30.93359375 C-56.341875 31.59359375 -56.011875 32.25359375 -55.671875 32.93359375 C-57.79420479 34.10535893 -59.91945291 35.2711416 -62.046875 36.43359375 C-62.65015625 36.76746094 -63.2534375 37.10132813 -63.875 37.4453125 C-68.4453125 39.93359375 -68.4453125 39.93359375 -70.671875 39.93359375 C-70.671875 40.59359375 -70.671875 41.25359375 -70.671875 41.93359375 C-72.156875 42.42859375 -72.156875 42.42859375 -73.671875 42.93359375 C-75.65704952 36.35924338 -73.20366268 28.20399855 -70.671875 21.93359375 C-68.79327301 19.48914779 -67.11904031 17.96250103 -64.57421875 16.2578125 C-62.56782878 15.02800591 -62.56782878 15.02800591 -61.34082031 12.98950195 C-59.39670404 10.59462144 -57.90591241 9.86943934 -55.06640625 8.71484375 C-54.16470703 8.33972656 -53.26300781 7.96460938 -52.33398438 7.578125 C-51.39361328 7.20042969 -50.45324219 6.82273437 -49.484375 6.43359375 C-47.63575703 5.67551808 -45.78808513 4.91513091 -43.94140625 4.15234375 C-43.03890137 3.78520264 -42.13639648 3.41806152 -41.20654297 3.03979492 C-38.94030493 2.05074421 -36.8716731 0.93151755 -34.73046875 -0.296875 C-29.69672488 -2.87483761 -24.47742478 -2.77628781 -18.921875 -2.87890625 C-17.38080078 -2.93594727 -17.38080078 -2.93594727 -15.80859375 -2.99414062 C-9.75401183 -3.17964607 -5.26033613 -3.21968849 0 0 Z " fill="#C8775D" transform="translate(94.671875,13.06640625)"/>
<path d="M0 0 C3.33274503 3.85625144 5.56499945 7.75963404 7.75 12.3125 C8.06582031 12.95767578 8.38164063 13.60285156 8.70703125 14.26757812 C9.47691708 15.84234459 10.23924891 17.4208004 11 19 C9.02 19.99 9.02 19.99 7 21 C6.525625 20.443125 6.05125 19.88625 5.5625 19.3125 C2.03539503 16.12950283 -1.80222439 14.2223518 -6 12 C-6.99 15.3 -7.98 18.6 -9 22 C-9.99 22 -10.98 22 -12 22 C-11.98839844 22.73605469 -11.97679688 23.47210938 -11.96484375 24.23046875 C-11.95582031 25.20628906 -11.94679688 26.18210937 -11.9375 27.1875 C-11.92589844 28.15042969 -11.91429688 29.11335938 -11.90234375 30.10546875 C-12 33 -12 33 -13 38 C-9.7 37.34 -6.4 36.68 -3 36 C-3.33 34.68 -3.66 33.36 -4 32 C-1.03 33.98 1.94 35.96 5 38 C4.505 38.99 4.505 38.99 4 40 C3.01 40.33 2.02 40.66 1 41 C0.67 40.01 0.34 39.02 0 38 C-1.4800841 38.11362262 -2.95910074 38.24122908 -4.4375 38.375 C-5.67306641 38.47941406 -5.67306641 38.47941406 -6.93359375 38.5859375 C-7.95646484 38.79089844 -7.95646484 38.79089844 -9 39 C-9.33 39.66 -9.66 40.32 -10 41 C-15.50930954 39.65626597 -19.08621081 36.96769813 -23 33 C-23.33 32.34 -23.66 31.68 -24 31 C-20.35446828 32.2808625 -18.83328987 33.16671013 -16 36 C-15.01 32.04 -14.02 28.08 -13 24 C-14.876875 24.185625 -16.75375 24.37125 -18.6875 24.5625 C-22.72607036 24.96191905 -26.05352382 24.98844951 -30 24 C-31.79341438 19.83326479 -30.01173384 16.25336659 -28.5625 12.25 C-28.31951172 11.55261719 -28.07652344 10.85523438 -27.82617188 10.13671875 C-27.22689752 8.42114902 -26.61470115 6.71010285 -26 5 C-25.34 5.33 -24.68 5.66 -24 6 C-24.45611901 7.70892588 -24.91500891 9.41711229 -25.375 11.125 C-25.63023438 12.07632813 -25.88546875 13.02765625 -26.1484375 14.0078125 C-27.01113775 17.03913539 -27.98224852 20.01754566 -29 23 C-26.87465341 22.85930804 -24.74972471 22.71229079 -22.625 22.5625 C-20.84996094 22.44068359 -20.84996094 22.44068359 -19.0390625 22.31640625 C-16.08481099 22.18915064 -16.08481099 22.18915064 -14 21 C-14.24758057 20.4652002 -14.49516113 19.93040039 -14.75024414 19.37939453 C-15.8624945 16.96492701 -16.9626114 14.54512217 -18.0625 12.125 C-18.64741211 10.86236328 -18.64741211 10.86236328 -19.24414062 9.57421875 C-19.79038086 8.36572266 -19.79038086 8.36572266 -20.34765625 7.1328125 C-20.68804932 6.38918457 -21.02844238 5.64555664 -21.37915039 4.87939453 C-22 3 -22 3 -21 1 C-18.26783622 2.36608189 -18.17186665 3.7290386 -17.125 6.5625 C-15.34520401 11.21271886 -13.29120317 15.58125103 -11 20 C-10.01 16.7 -9.02 13.4 -8 10 C-9.65 8.35 -11.3 6.7 -13 5 C-10.61435923 5.57584432 -8.33317216 6.22227595 -6 7 C-5.34 5.35 -4.68 3.7 -4 2 C-3.34 2 -2.68 2 -2 2 C-2.66 4.31 -3.32 6.62 -4 9 C-0.7 11.31 2.6 13.62 6 16 C5.05261485 12.2104594 3.82863856 9.62990721 1.9375 6.25 C1.38964844 5.26515625 0.84179688 4.2803125 0.27734375 3.265625 C-0.35494141 2.14414062 -0.35494141 2.14414062 -1 1 C-0.67 0.67 -0.34 0.34 0 0 Z " fill="#CC8169" transform="translate(114,27)"/>
<path d="M0 0 C3.83625 -0.12375 3.83625 -0.12375 7.75 -0.25 C8.54889648 -0.28641602 9.34779297 -0.32283203 10.17089844 -0.36035156 C13.70742853 -0.41558201 15.64506508 -0.2600296 18.52734375 1.8515625 C20 4 20 4 19.8125 6.625 C19 9 19 9 18 11 C18.96885372 12.68496298 19.96986723 14.35178756 21 16 C21 16.66 21 17.32 21 18 C17.6875 18.3125 17.6875 18.3125 14 18 C12.375 15.5625 12.375 15.5625 11 13 C8.40877257 12.11341534 8.40877257 12.11341534 6 12 C6 13.98 6 15.96 6 18 C4.02 18 2.04 18 0 18 C0 12.06 0 6.12 0 0 Z M7 4 C7 5.32 7 6.64 7 8 C8.65 8 10.3 8 12 8 C12 6.68 12 5.36 12 4 C10.35 4 8.7 4 7 4 Z " fill="#161616" transform="translate(206,55)"/>
<path d="M0 0 C2.31 0 4.62 0 7 0 C7 2.31 7 4.62 7 7 C9.31 7 11.62 7 14 7 C14 4.69 14 2.38 14 0 C15.98 0 17.96 0 20 0 C20 5.94 20 11.88 20 18 C18.02 18 16.04 18 14 18 C14 16.02 14 14.04 14 12 C11.69 12 9.38 12 7 12 C7 13.98 7 15.96 7 18 C4.69 18 2.38 18 0 18 C0 12.06 0 6.12 0 0 Z " fill="#181818" transform="translate(305,55)"/>
<path d="M0 0 C2.0625 1.75 2.0625 1.75 2.9375 3.875 C2.97875 4.49375 3.02 5.1125 3.0625 5.75 C2.0625 6.75 2.0625 6.75 -0.375 6.9375 C-2.9375 6.75 -2.9375 6.75 -4.9375 4.75 C-7.52104218 4.58312552 -7.52104218 4.58312552 -9.9375 4.75 C-10.73703138 8.03696233 -11.03408936 9.46023192 -9.9375 12.75 C-7.52104218 12.91687448 -7.52104218 12.91687448 -4.9375 12.75 C-4.2775 12.09 -3.6175 11.43 -2.9375 10.75 C0.1875 10.625 0.1875 10.625 3.0625 10.75 C2.9375 13.0625 2.9375 13.0625 2.0625 15.75 C-2.23815989 18.71950326 -5.78117338 19.31250836 -10.9375 18.75 C-14.4761994 17.09860695 -15.74820153 16.03394771 -17.9375 12.75 C-18.60673077 5.83461538 -18.60673077 5.83461538 -16.125 1.8125 C-11.63456073 -2.42134274 -5.43424129 -2.3124431 0 0 Z " fill="#1A1A1A" transform="translate(158.9375,55.25)"/>
<path d="M0 0 C2.64 0 5.28 0 8 0 C9.15082685 2.24756784 10.29576858 4.49781748 11.4375 6.75 C11.92573242 7.70132813 11.92573242 7.70132813 12.42382812 8.671875 C13.97063665 11.73359908 15.3915078 14.60615621 16 18 C13.69 18 11.38 18 9 18 C8.67 17.01 8.34 16.02 8 15 C5.36 15 2.72 15 0 15 C-0.33 15.99 -0.66 16.98 -1 18 C-2.98 18 -4.96 18 -7 18 C-6.35534798 13.66695924 -4.81074878 10.13327935 -2.9375 6.1875 C-2.11572266 4.44533203 -2.11572266 4.44533203 -1.27734375 2.66796875 C-0.85582031 1.78753906 -0.43429687 0.90710937 0 0 Z M3 7 C3 7.99 3 8.98 3 10 C3.99 9.67 4.98 9.34 6 9 C5.67 8.34 5.34 7.68 5 7 C4.34 7 3.68 7 3 7 Z " fill="#191919" transform="translate(270,55)"/>
<path d="M0 0 C3.83625 -0.12375 3.83625 -0.12375 7.75 -0.25 C8.54889648 -0.28641602 9.34779297 -0.32283203 10.17089844 -0.36035156 C13.67692148 -0.41510557 15.63116975 -0.27039832 18.48828125 1.82421875 C20.52130649 4.75030418 20.51970893 6.51052576 20 10 C18.796875 11.671875 18.796875 11.671875 17 13 C14.51953125 13.29296875 14.51953125 13.29296875 11.8125 13.1875 C10.91144531 13.16042969 10.01039063 13.13335937 9.08203125 13.10546875 C8.39496094 13.07066406 7.70789063 13.03585938 7 13 C7 14.65 7 16.3 7 18 C4.69 18 2.38 18 0 18 C0 12.06 0 6.12 0 0 Z M7 4 C7 5.65 7 7.3 7 9 C8.98 9 10.96 9 13 9 C13.33 8.01 13.66 7.02 14 6 C12.16116119 3.71271266 12.16116119 3.71271266 9.375 3.875 C8.199375 3.936875 8.199375 3.936875 7 4 Z " fill="#1A1A1A" transform="translate(243,55)"/>
<path d="M0 0 C0.33 0 0.66 0 1 0 C1.15082031 1.82724609 1.15082031 1.82724609 1.3046875 3.69140625 C2.06783174 12.92001615 2.06783174 12.92001615 6.42578125 20.75390625 C9.42942007 22.88064264 9.42942007 22.88064264 14 25 C12.68 20.38 11.36 15.76 10 11 C10.66 11 11.32 11 12 11 C12.33 10.01 12.66 9.02 13 8 C18.61 8.66 24.22 9.32 30 10 C26.26034036 12.49310643 24.70929359 12.0603261 20.3125 11.625 C19.13300781 11.51414062 17.95351563 11.40328125 16.73828125 11.2890625 C15.83464844 11.19367187 14.93101563 11.09828125 14 11 C15.32 12.32 16.64 13.64 18 15 C17.67 15.99 17.34 16.98 17 18 C16.01 17.34 15.02 16.68 14 16 C14.99 19.3 15.98 22.6 17 26 C16.01 26.33 15.02 26.66 14 27 C13.67 27.66 13.34 28.32 13 29 C5 27 5 27 3.109375 26.51367188 C-0.31498333 25.67977721 -3.78522143 25.07719852 -7.25 24.4375 C-7.99507812 24.29892578 -8.74015625 24.16035156 -9.5078125 24.01757812 C-11.33833802 23.67728812 -13.16914186 23.33849587 -15 23 C-15 22.67 -15 22.34 -15 22 C-9.15659442 20.75672222 -4.73303505 21.42699038 1 23 C0.77812436 19.11717622 0.03752696 18.03669303 -2.8125 15.25 C-6.16199631 12.87786181 -6.16199631 12.87786181 -10 12 C-9.67 11.34 -9.34 10.68 -9 10 C-8.34 10.33 -7.68 10.66 -7 11 C-6.67 10.34 -6.34 9.68 -6 9 C-4 11 -2 13 0 15 C-0.12568359 13.50146484 -0.12568359 13.50146484 -0.25390625 11.97265625 C-0.35574219 10.68230469 -0.45757812 9.39195313 -0.5625 8.0625 C-0.66691406 6.77472656 -0.77132812 5.48695312 -0.87890625 4.16015625 C-0.91886719 3.11730469 -0.95882812 2.07445312 -1 1 C-0.67 0.67 -0.34 0.34 0 0 Z M4 21 C4.33 22.32 4.66 23.64 5 25 C7.97 25.495 7.97 25.495 11 26 C9.37660195 24.29115995 7.70680947 22.62553283 6 21 C5.34 21 4.68 21 4 21 Z " fill="#CA7C63" transform="translate(42,50)"/>
<path d="M0 0 C4.29 0 8.58 0 13 0 C13 1.65 13 3.3 13 5 C12.01 5 11.02 5 10 5 C10 7.97 10 10.94 10 14 C10.99 14 11.98 14 13 14 C13 15.32 13 16.64 13 18 C8.71 18 4.42 18 0 18 C0 16.68 0 15.36 0 14 C0.99 14 1.98 14 3 14 C3 11.03 3 8.06 3 5 C2.01 5 1.02 5 0 5 C0 3.35 0 1.7 0 0 Z " fill="#191919" transform="translate(228,55)"/>
<path d="M0 0 C6.27 0 12.54 0 19 0 C19.33 1.32 19.66 2.64 20 4 C19.67 4.33 19.34 4.66 19 5 C17.02 5 15.04 5 13 5 C13 9.29 13 13.58 13 18 C11.02 18 9.04 18 7 18 C7 13.71 7 9.42 7 5 C5.02 5 3.04 5 1 5 C0.67 3.35 0.34 1.7 0 0 Z " fill="#131313" transform="translate(284,55)"/>
<path d="M0 0 C1.19882813 0.15275391 1.19882813 0.15275391 2.421875 0.30859375 C3.02515625 0.39238281 3.6284375 0.47617187 4.25 0.5625 C1.97613343 2.48654095 0.27987237 3.55362013 -2.6015625 4.41015625 C-7.90552907 6.35143434 -11.37071791 10.12076614 -14.75 14.5625 C-15.97932896 17.68998823 -16.37495953 20.18713581 -16.75 23.5625 C-17.41 22.9025 -18.07 22.2425 -18.75 21.5625 C-19.4009259 22.80985567 -20.04551669 24.06051832 -20.6875 25.3125 C-21.04714844 26.00859375 -21.40679687 26.7046875 -21.77734375 27.421875 C-22.70558182 29.46474433 -23.28166578 31.37365376 -23.75 33.5625 C-24.801875 33.129375 -24.801875 33.129375 -25.875 32.6875 C-28.80452503 31.54116412 -31.75921653 30.53624346 -34.75 29.5625 C-33.43 32.8625 -32.11 36.1625 -30.75 39.5625 C-28.275 37.0875 -28.275 37.0875 -25.75 34.5625 C-26.74 37.5325 -27.73 40.5025 -28.75 43.5625 C-28.09 43.8925 -27.43 44.2225 -26.75 44.5625 C-28.4 44.5625 -30.05 44.5625 -31.75 44.5625 C-33.73 39.2825 -35.71 34.0025 -37.75 28.5625 C-33.75 26.5625 -33.75 26.5625 -31.390625 27.2421875 C-30.60171875 27.63664062 -29.8128125 28.03109375 -29 28.4375 C-28.20078125 28.82679687 -27.4015625 29.21609375 -26.578125 29.6171875 C-25.97484375 29.92914063 -25.3715625 30.24109375 -24.75 30.5625 C-24.646875 29.86125 -24.54375 29.16 -24.4375 28.4375 C-23.75 25.5625 -23.75 25.5625 -22.125 22.5625 C-20.60568603 19.24763317 -20.65002766 17.96241451 -21.75 14.5625 C-21.09 14.5625 -20.43 14.5625 -19.75 14.5625 C-19.75 12.9125 -19.75 11.2625 -19.75 9.5625 C-18.76 10.8825 -17.77 12.2025 -16.75 13.5625 C-15.10113941 11.94057179 -13.4559976 10.31486228 -11.8125 8.6875 C-10.89597656 7.78257813 -9.97945312 6.87765625 -9.03515625 5.9453125 C-6.73812373 3.78567745 -6.73812373 3.78567745 -5.75 1.5625 C-6.74 1.2325 -7.73 0.9025 -8.75 0.5625 C-5.62819599 -0.40411363 -3.22916205 -0.42738909 0 0 Z " fill="#C77960" transform="translate(58.75,27.4375)"/>
<path d="M0 0 C1.65 0 3.3 0 5 0 C5.33 6.6 5.66 13.2 6 20 C7.60875 19.01 9.2175 18.02 10.875 17 C15.75 14 15.75 14 18 14 C16.76736651 17.69790046 15.79947549 17.9354846 12.4375 19.6875 C11.61121094 20.12449219 10.78492187 20.56148437 9.93359375 21.01171875 C8.97646484 21.50091797 8.97646484 21.50091797 8 22 C10.31 23.98 12.62 25.96 15 28 C14.34 28.66 13.68 29.32 13 30 C11.35 28.68 9.7 27.36 8 26 C7.01 27.32 6.02 28.64 5 30 C4.67 28.02 4.34 26.04 4 24 C1.36 23.34 -1.28 22.68 -4 22 C-4 21.67 -4 21.34 -4 21 C-2.02 20.67 -0.04 20.34 2 20 C1.55527344 19.33613281 1.11054687 18.67226562 0.65234375 17.98828125 C0.08644531 17.10527344 -0.47945313 16.22226563 -1.0625 15.3125 C-1.63097656 14.44238281 -2.19945313 13.57226562 -2.78515625 12.67578125 C-4.21767996 9.52054413 -4.05448011 8.24455418 -3 5 C-1.75 2.1875 -1.75 2.1875 0 0 Z M1 2 C-0.84577344 4.07649512 -1.90845859 5.57662099 -2.5 8.3125 C-1.77007577 12.23584274 0.3889327 15.02937589 3 18 C3.33 18 3.66 18 4 18 C3.88658509 15.51979503 3.75985314 13.04155031 3.625 10.5625 C3.5940625 9.85544922 3.563125 9.14839844 3.53125 8.41992188 C3.42719371 6.60760812 3.22080108 4.80182012 3 3 C2.34 2.67 1.68 2.34 1 2 Z " fill="#CA7C63" transform="translate(80,53)"/>
<path d="M0 0 C0.99 0.33 1.98 0.66 3 1 C2.67 5.62 2.34 10.24 2 15 C3.32 15.66 4.64 16.32 6 17 C5.01 17 4.02 17 3 17 C3.48210937 17.54269531 3.96421875 18.08539063 4.4609375 18.64453125 C5.09257813 19.35996094 5.72421875 20.07539062 6.375 20.8125 C7.00148438 21.52019531 7.62796875 22.22789063 8.2734375 22.95703125 C10 25 10 25 12 28 C8.87217921 26.62731009 6.92390998 25.07187357 4.625 22.5625 C1.66038438 19.52820324 -0.9222066 17.41836292 -5 16 C-8.50397556 16.08342799 -9.60729562 16.59539549 -12.0625 19.125 C-12.701875 19.74375 -13.34125 20.3625 -14 21 C-16.25 20.75 -16.25 20.75 -18 20 C-18 19.34 -18 18.68 -18 18 C-17.21625 17.731875 -16.4325 17.46375 -15.625 17.1875 C-12.71885077 16.15185568 -12.71885077 16.15185568 -11 13 C-11.99 12.01 -12.98 11.02 -14 10 C-13.67 9.34 -13.34 8.68 -13 8 C-12.01 8.99 -11.02 9.98 -10 11 C-5.7257442 9.4169423 -3.73468206 6.49431596 -1 3 C-2.32 2.67 -3.64 2.34 -5 2 C-3.35 2 -1.7 2 0 2 C0 1.34 0 0.68 0 0 Z M-1 6 C-1.33 6.99 -1.66 7.98 -2 9 C-2.66 9 -3.32 9 -4 9 C-4.66 10.32 -5.32 11.64 -6 13 C-3.525 13.99 -3.525 13.99 -1 15 C-0.67 12.03 -0.34 9.06 0 6 C-0.33 6 -0.66 6 -1 6 Z M12 20 C12.33 20 12.66 20 13 20 C13 22.31 13 24.62 13 27 C12.67 27 12.34 27 12 27 C12 24.69 12 22.38 12 20 Z " fill="#C36B4F" transform="translate(74,59)"/>
<path d="M0 0 C6 9 6 9 6 12 C6.66 12 7.32 12 8 12 C8.33 12.78375 8.66 13.5675 9 14.375 C11.50381695 19.45591635 15.39902742 23.6719902 19 28 C18.34 28.66 17.68 29.32 17 30 C15.32742872 27.87941855 13.66184582 25.75395924 12 23.625 C11.52304688 23.02171875 11.04609375 22.4184375 10.5546875 21.796875 C7 17.2265625 7 17.2265625 7 15 C6.34 15 5.68 15 5 15 C4.7525 15.70125 4.505 16.4025 4.25 17.125 C3 20 3 20 0.9375 23 C-0.90050564 25.84594422 -1.60979904 27.68329188 -2 31 C-6.08596252 29.47236536 -7.79826179 26.88915809 -10.25 23.375 C-10.95640625 22.37210938 -11.6628125 21.36921875 -12.390625 20.3359375 C-13.18726563 19.17964844 -13.18726563 19.17964844 -14 18 C-13.34 17.34 -12.68 16.68 -12 16 C-11.51789062 16.6496875 -11.03578125 17.299375 -10.5390625 17.96875 C-9.59160156 19.22171875 -9.59160156 19.22171875 -8.625 20.5 C-7.99851562 21.3353125 -7.37203125 22.170625 -6.7265625 23.03125 C-6.15679687 23.6809375 -5.58703125 24.330625 -5 25 C-4.34 25 -3.68 25 -3 25 C-1.39639826 22.9299191 -1.39639826 22.9299191 0.125 20.3125 C0.66382813 19.44238281 1.20265625 18.57226562 1.7578125 17.67578125 C3.09204938 14.80171754 3.36757962 13.12442674 3 10 C2.505 9.175 2.01 8.35 1.5 7.5 C-0.17473073 4.70878212 -0.27356627 3.19160653 0 0 Z " fill="#C36C4F" transform="translate(56,30)"/>
<path d="M0 0 C0.66 0.33 1.32 0.66 2 1 C1.25009159 4.88588904 -0.44697843 7.15311195 -2.84375 10.21875 C-4.09064945 12.13964915 -4.56859327 13.76452874 -5 16 C-11.69083023 15.67094278 -16.52253869 14.13311211 -22.51953125 11.15625 C-24.70108384 10.1393373 -26.65209516 9.4816215 -29 9 C-29 8.01 -29 7.02 -29 6 C-27.58208592 6.45445964 -26.16571954 6.91374944 -24.75 7.375 C-23.96109375 7.63023438 -23.1721875 7.88546875 -22.359375 8.1484375 C-20 9 -20 9 -17.953125 10.1015625 C-15.75264928 11.27860374 -15.75264928 11.27860374 -12 11 C-11.34 9.68 -10.68 8.36 -10 7 C-8.68 8.32 -7.36 9.64 -6 11 C-4.68 9.02 -3.36 7.04 -2 5 C-3.670625 5.309375 -3.670625 5.309375 -5.375 5.625 C-7.169375 5.810625 -7.169375 5.810625 -9 6 C-9.66 5.34 -10.32 4.68 -11 4 C-7.36576791 1.67409146 -4.22911669 1.83734167 0 2 C0 1.34 0 0.68 0 0 Z M-10 11 C-9 13 -9 13 -9 13 Z " fill="#C3694C" transform="translate(127,59)"/>
<path d="M0 0 C2.0625 1.75 2.0625 1.75 2.9375 3.875 C2.97875 4.49375 3.02 5.1125 3.0625 5.75 C2.0625 6.75 2.0625 6.75 -0.375 6.9375 C-2.9375 6.75 -2.9375 6.75 -4.9375 4.75 C-7.52104218 4.58312552 -7.52104218 4.58312552 -9.9375 4.75 C-10.5975 6.4 -11.2575 8.05 -11.9375 9.75 C-13.9375 6.75 -13.9375 6.75 -13.9375 3.75 C-14.9275 4.08 -15.9175 4.41 -16.9375 4.75 C-16.02236681 2.46216703 -15.28265354 1.01550272 -13.3125 -0.5 C-8.58518116 -1.99283753 -4.48869427 -1.91008267 0 0 Z " fill="#1F1F1F" transform="translate(158.9375,55.25)"/>
<path d="M0 0 C2.97 0.99 5.94 1.98 9 3 C9 4.32 9 5.64 9 7 C8.01 7.33 7.02 7.66 6 8 C6 7.01 6 6.02 6 5 C1.05 5.33 -3.9 5.66 -9 6 C-7.02 7.32 -5.04 8.64 -3 10 C-3.66 10.66 -4.32 11.32 -5 12 C-5.7425 11.34 -6.485 10.68 -7.25 10 C-9.97242945 7.60788553 -9.97242945 7.60788553 -14 8 C-14.66 9.32 -15.32 10.64 -16 12 C-16.12375 11.360625 -16.2475 10.72125 -16.375 10.0625 C-16.58125 9.381875 -16.7875 8.70125 -17 8 C-17.66 7.67 -18.32 7.34 -19 7 C-19.33 6.67 -19.66 6.34 -20 6 C-22.01964199 5.92755947 -24.04167124 5.91622812 -26.0625 5.9375 C-27.16722656 5.94652344 -28.27195312 5.95554687 -29.41015625 5.96484375 C-30.26480469 5.97644531 -31.11945313 5.98804688 -32 6 C-32 5.67 -32 5.34 -32 5 C-20.26841562 3.00918568 -8.87783126 2.78294319 3 3 C2.01 2.01 1.02 1.02 0 0 Z " fill="#BF6042" transform="translate(105,21)"/>
<path d="M0 0 C1.19882812 0.15275391 1.19882812 0.15275391 2.421875 0.30859375 C3.02515625 0.39238281 3.6284375 0.47617187 4.25 0.5625 C1.97613343 2.48654095 0.27987237 3.55362013 -2.6015625 4.41015625 C-7.90552907 6.35143434 -11.37071791 10.12076614 -14.75 14.5625 C-15.97932896 17.68998823 -16.37495953 20.18713581 -16.75 23.5625 C-17.08 22.2425 -17.41 20.9225 -17.75 19.5625 C-18.41 19.5625 -19.07 19.5625 -19.75 19.5625 C-20.41 17.9125 -21.07 16.2625 -21.75 14.5625 C-21.09 14.5625 -20.43 14.5625 -19.75 14.5625 C-19.75 12.9125 -19.75 11.2625 -19.75 9.5625 C-18.76 10.8825 -17.77 12.2025 -16.75 13.5625 C-15.10113941 11.94057179 -13.4559976 10.31486228 -11.8125 8.6875 C-10.89597656 7.78257813 -9.97945312 6.87765625 -9.03515625 5.9453125 C-6.73812373 3.78567745 -6.73812373 3.78567745 -5.75 1.5625 C-6.74 1.2325 -7.73 0.9025 -8.75 0.5625 C-5.62819599 -0.40411363 -3.22916205 -0.42738909 0 0 Z " fill="#BE5E40" transform="translate(58.75,27.4375)"/>
<path d="M0 0 C0.99580078 0.60424805 0.99580078 0.60424805 2.01171875 1.22070312 C2.69363281 1.64158203 3.37554687 2.06246094 4.078125 2.49609375 C4.77550781 2.92083984 5.47289063 3.34558594 6.19140625 3.78320312 C7.90648217 4.82869461 9.61768973 5.88052726 11.328125 6.93359375 C10.668125 7.59359375 10.008125 8.25359375 9.328125 8.93359375 C2.893125 4.97359375 2.893125 4.97359375 -3.671875 0.93359375 C-3.341875 4.23359375 -3.011875 7.53359375 -2.671875 10.93359375 C-3.331875 10.93359375 -3.991875 10.93359375 -4.671875 10.93359375 C-5.661875 7.30359375 -6.651875 3.67359375 -7.671875 -0.06640625 C-13.281875 -0.39640625 -18.891875 -0.72640625 -24.671875 -1.06640625 C-24.671875 -1.39640625 -24.671875 -1.72640625 -24.671875 -2.06640625 C-21.92222272 -2.2615235 -19.17245368 -2.44777058 -16.421875 -2.62890625 C-15.64457031 -2.68498047 -14.86726563 -2.74105469 -14.06640625 -2.79882812 C-13.31230469 -2.84716797 -12.55820313 -2.89550781 -11.78125 -2.9453125 C-11.08999023 -2.99244385 -10.39873047 -3.0395752 -9.68652344 -3.08813477 C-5.91388791 -3.04744589 -3.1864205 -1.9503091 0 0 Z " fill="#C47055" transform="translate(94.671875,13.06640625)"/>
<path d="M0 0 C3.33274503 3.85625144 5.56499945 7.75963404 7.75 12.3125 C8.22373047 13.28026367 8.22373047 13.28026367 8.70703125 14.26757812 C9.47691708 15.84234459 10.23924891 17.4208004 11 19 C9.02 19.99 9.02 19.99 7 21 C6.525625 20.443125 6.05125 19.88625 5.5625 19.3125 C2.07597387 16.16612276 -1.85325773 14.16197674 -6 12 C-3.34501768 10.9830687 -2.30844625 10.86977849 0.359375 11.99609375 C1.14828125 12.47175781 1.9371875 12.94742188 2.75 13.4375 C3.54921875 13.91058594 4.3484375 14.38367187 5.171875 14.87109375 C5.77515625 15.24363281 6.3784375 15.61617187 7 16 C6.41089844 15.01257812 5.82179688 14.02515625 5.21484375 13.0078125 C4.45530807 11.71378874 3.69621634 10.41950433 2.9375 9.125 C2.35258789 8.14853516 2.35258789 8.14853516 1.75585938 7.15234375 C0.77555467 5.46934275 -0.11898432 3.73703801 -1 2 C-0.67 1.34 -0.34 0.68 0 0 Z " fill="#CA7E66" transform="translate(114,27)"/>
<path d="M0 0 C0.66 0.33 1.32 0.66 2 1 C1.01 3.97 0.02 6.94 -1 10 C0.32 10.33 1.64 10.66 3 11 C3.33 10.01 3.66 9.02 4 8 C4.33 8.66 4.66 9.32 5 10 C3.875 11.5625 3.875 11.5625 2 13 C-3.23303975 12.78195668 -3.23303975 12.78195668 -5.3984375 10.57421875 C-7.32436053 8.68117734 -9.12863549 7.94173784 -11.625 6.9375 C-15.89057751 5.21884498 -15.89057751 5.21884498 -17 3 C-11.45949887 3.56825653 -6.96284034 5.62886517 -2 8 C-1.855625 7.236875 -1.71125 6.47375 -1.5625 5.6875 C-1 3 -1 3 0 0 Z " fill="#CD846C" transform="translate(123,49)"/>
<path d="M0 0 C5.01656959 1.4333056 7.01452882 3.90563952 10 8 C10 8.66 10 9.32 10 10 C11.32 8.68 12.64 7.36 14 6 C14.99 6.33 15.98 6.66 17 7 C15.35 9.31 13.7 11.62 12 14 C9.03 13.67 6.06 13.34 3 13 C3 12.67 3 12.34 3 12 C4.65 11.67 6.3 11.34 8 11 C5.525 7.04 5.525 7.04 3 3 C2.01 3.99 1.02 4.98 0 6 C0 4.02 0 2.04 0 0 Z " fill="#CD856E" transform="translate(99,68)"/>
<path d="M0 0 C2.20485843 2.6773281 4.22490532 5.34397283 6.125 8.25 C7.71377738 11.05983382 7.71377738 11.05983382 10 12 C10 12.66 10 13.32 10 14 C11.65 14 13.3 14 15 14 C14.34 14.66 13.68 15.32 13 16 C14.32 17.65 15.64 19.3 17 21 C14.53199953 19.84826645 12.95216435 18.95216435 11 17 C10.0409375 16.9071875 10.0409375 16.9071875 9.0625 16.8125 C7 16 7 16 5.5625 12.875 C5.33046875 12.25238281 5.0984375 11.62976562 4.859375 10.98828125 C3.40710509 7.62825678 1.19894167 4.91211194 -1 2 C-0.67 1.34 -0.34 0.68 0 0 Z " fill="#CC8169" transform="translate(74,37)"/>
<path d="M0 0 C0.66 0.33 1.32 0.66 2 1 C2 1.66 2 2.32 2 3 C2.99 3.33 3.98 3.66 5 4 C5 4.66 5 5.32 5 6 C1.37 6.66 -2.26 7.32 -6 8 C-6.33 7.01 -6.66 6.02 -7 5 C-6.34 5 -5.68 5 -5 5 C-5 4.34 -5 3.68 -5 3 C-5.99 2.67 -6.98 2.34 -8 2 C-4.94736336 1.01879536 -3.05263664 1.01879536 0 2 C0 1.34 0 0.68 0 0 Z M-3 3 C-3.33 3.66 -3.66 4.32 -4 5 C-2.68 4.67 -1.36 4.34 0 4 C-0.99 3.67 -1.98 3.34 -3 3 Z " fill="#BF6C51" transform="translate(99,88)"/>
<path d="M0 0 C0.66 0 1.32 0 2 0 C1.649375 1.11375 1.29875 2.2275 0.9375 3.375 C-0.37239331 6.80264476 -0.37239331 6.80264476 1 9 C0.01 9 -0.98 9 -2 9 C-2.1546875 10.36125 -2.1546875 10.36125 -2.3125 11.75 C-3.00414949 15.01961575 -3.82134921 16.53717737 -6 19 C-5.04444444 13.13015873 -5.04444444 13.13015873 -4.125 10.4375 C-3.7018166 7.68792135 -3.7018166 7.68792135 -6.4375 5.1875 C-7.283125 4.465625 -8.12875 3.74375 -9 3 C-6.61435923 3.57584432 -4.33317216 4.22227595 -2 5 C-1.34 3.35 -0.68 1.7 0 0 Z " fill="#C8785E" transform="translate(110,29)"/>
<path d="M0 0 C3.465 1.98 3.465 1.98 7 4 C7 4.66 7 5.32 7 6 C8.65 6 10.3 6 12 6 C12.33 6.66 12.66 7.32 13 8 C11.1746875 7.8453125 11.1746875 7.8453125 9.3125 7.6875 C5.55708858 7.6477602 5.1988691 7.81469016 2.25 10.5625 C1.5075 11.366875 0.765 12.17125 0 13 C-2.3125 12.8125 -2.3125 12.8125 -4 12 C-4 11.34 -4 10.68 -4 10 C-3.21625 9.731875 -2.4325 9.46375 -1.625 9.1875 C1.28114923 8.15185568 1.28114923 8.15185568 3 5 C2.2575 4.319375 2.2575 4.319375 1.5 3.625 C0 2 0 2 0 0 Z " fill="#BF6345" transform="translate(60,67)"/>
<path d="M0 0 C5.61 0.66 11.22 1.32 17 2 C13.26034036 4.49310643 11.70929359 4.0603261 7.3125 3.625 C6.13300781 3.51414063 4.95351563 3.40328125 3.73828125 3.2890625 C2.83464844 3.19367187 1.93101563 3.09828125 1 3 C2.32 4.32 3.64 5.64 5 7 C4.67 7.99 4.34 8.98 4 10 C2.2925002 8.71937515 0.62626404 7.38232443 -1 6 C-1 5.34 -1 4.68 -1 4 C-1.66 3.67 -2.32 3.34 -3 3 C-2.34 3 -1.68 3 -1 3 C-0.67 2.01 -0.34 1.02 0 0 Z " fill="#CE856E" transform="translate(55,58)"/>
<path d="M0 0 C1.65 0 3.3 0 5 0 C5 3.96 5 7.92 5 12 C3 8 3 8 2 4 C-1.96 3.67 -5.92 3.34 -10 3 C-10 2.67 -10 2.34 -10 2 C-6.7 1.67 -3.4 1.34 0 1 C0 0.67 0 0.34 0 0 Z " fill="#BD5D3E" transform="translate(122,46)"/>
<path d="M0 0 C6 7.5 6 7.5 12 15 C11.34 15.66 10.68 16.32 10 17 C8.32120492 14.92548894 6.65719649 12.84165071 5 10.75 C4.52304688 10.16347656 4.04609375 9.57695313 3.5546875 8.97265625 C0.92080105 5.62385776 0 4.39260489 0 0 Z " fill="#CC8169" transform="translate(63,43)"/>
<path d="M0 0 C5.72729096 0.42954682 9.39447802 2.84781971 14 6 C14.99 6.66 15.98 7.32 17 8 C15.02 8.99 15.02 8.99 13 10 C12.525625 9.443125 12.05125 8.88625 11.5625 8.3125 C8.07597387 5.16612276 4.14674227 3.16197674 0 1 C0 0.67 0 0.34 0 0 Z " fill="#CF8D77" transform="translate(108,38)"/>
<path d="M0 0 C0.66 0.33 1.32 0.66 2 1 C1.6875 2.875 1.6875 2.875 1 5 C0.01 5.66 -0.98 6.32 -2 7 C-2 6.34 -2 5.68 -2 5 C-3.670625 5.309375 -3.670625 5.309375 -5.375 5.625 C-6.57125 5.74875 -7.7675 5.8725 -9 6 C-9.66 5.34 -10.32 4.68 -11 4 C-7.36576791 1.67409146 -4.22911669 1.83734167 0 2 C0 1.34 0 0.68 0 0 Z " fill="#BF5F41" transform="translate(127,59)"/>
<path d="M0 0 C0.66 0.66 1.32 1.32 2 2 C1.525625 2.5775 1.05125 3.155 0.5625 3.75 C-0.9484867 5.92582084 -1.54036151 7.42602448 -2 10 C-2.99 10 -3.98 10 -5 10 C-5 9.34 -5 8.68 -5 8 C-5.99 8 -6.98 8 -8 8 C-7.67 7.34 -7.34 6.68 -7 6 C-6.38125 5.896875 -5.7625 5.79375 -5.125 5.6875 C-2.05605613 4.6946064 -1.42456635 2.77790438 0 0 Z " fill="#CA7C63" transform="translate(124,65)"/>
<path d="M0 0 C3.37503669 1.1858237 5.64722731 2.27573689 8 5 C8.66 4.34 9.32 3.68 10 3 C10.66 4.65 11.32 6.3 12 8 C9.9375 8.4375 9.9375 8.4375 7 8 C4.4001393 5.90507092 2.13481125 3.56546482 0 1 C0 0.67 0 0.34 0 0 Z " fill="#D08B75" transform="translate(90,58)"/>
<path d="M0 0 C4.75 0.875 4.75 0.875 7 2 C6.67 2.66 6.34 3.32 6 4 C4.68 4 3.36 4 2 4 C1.67 4.99 1.34 5.98 1 7 C-1 4 -1 4 -0.625 1.8125 C-0.41875 1.214375 -0.2125 0.61625 0 0 Z " fill="#272727" transform="translate(218,55)"/>
<path d="M0 0 C0.99 0.99 1.98 1.98 3 3 C2.67 3.99 2.34 4.98 2 6 C0.35 6 -1.3 6 -3 6 C-2.42655063 3.13275314 -2.1385485 2.1385485 0 0 Z " fill="#2F2F2F" transform="translate(159,56)"/>
<path d="M0 0 C1.65 0 3.3 0 5 0 C5.05416188 1.60379341 5.09286638 3.20811406 5.125 4.8125 C5.14820312 5.70582031 5.17140625 6.59914063 5.1953125 7.51953125 C5 10 5 10 3 13 C2.92652344 11.96939453 2.92652344 11.96939453 2.8515625 10.91796875 C2.77679688 10.01691406 2.70203125 9.11585937 2.625 8.1875 C2.55539063 7.29417969 2.48578125 6.40085937 2.4140625 5.48046875 C2.13354964 2.75601501 2.13354964 2.75601501 0 0 Z " fill="#D0907B" transform="translate(80,53)"/>
<path d="M0 0 C0.33 0.66 0.66 1.32 1 2 C2.65 2 4.3 2 6 2 C5.34 2.66 4.68 3.32 4 4 C5.32 5.65 6.64 7.3 8 9 C5.53199953 7.84826645 3.95216435 6.95216435 2 5 C0.68252676 4.30251417 -0.64914193 3.63040043 -2 3 C-1.34 2.01 -0.68 1.02 0 0 Z " fill="#BA5737" transform="translate(83,49)"/>
<path d="M0 0 C2.93055354 2.82589091 5.71777953 5.61893264 8 9 C7.67 10.32 7.34 11.64 7 13 C4.36 9.37 1.72 5.74 -1 2 C-0.67 1.34 -0.34 0.68 0 0 Z " fill="#CB836C" transform="translate(43,46)"/>
<path d="M0 0 C1.19882812 0.15275391 1.19882812 0.15275391 2.421875 0.30859375 C3.02515625 0.39238281 3.6284375 0.47617187 4.25 0.5625 C1.62801226 2.71627564 -0.39404172 3.96322174 -3.75 4.5625 C-4.08 3.9025 -4.41 3.2425 -4.75 2.5625 C-6.76669827 1.42899466 -6.76669827 1.42899466 -8.75 0.5625 C-5.62819599 -0.40411363 -3.22916205 -0.42738909 0 0 Z " fill="#B95130" transform="translate(58.75,27.4375)"/>
<path d="M0 0 C0.33 0.66 0.66 1.32 1 2 C0.06421005 4.35981813 -0.93347808 6.69631264 -2 9 C-1.34 9.33 -0.68 9.66 0 10 C-1.65 10 -3.3 10 -5 10 C-5 6 -5 6 -3.625 4.4375 C-3.08875 3.963125 -2.5525 3.48875 -2 3 C-1.34 2.01 -0.68 1.02 0 0 Z " fill="#BE5D3E" transform="translate(32,62)"/>
<path d="M0 0 C0.33 0.99 0.66 1.98 1 3 C0.01 4.485 0.01 4.485 -1 6 C-1.66 6 -2.32 6 -3 6 C-3.33 7.65 -3.66 9.3 -4 11 C-4.66 11 -5.32 11 -6 11 C-6.33 10.01 -6.66 9.02 -7 8 C-5.56640625 5.95703125 -5.56640625 5.95703125 -3.5625 3.8125 C-2.90378906 3.09707031 -2.24507813 2.38164063 -1.56640625 1.64453125 C-1.04949219 1.10183594 -0.53257813 0.55914062 0 0 Z " fill="#D18E78" transform="translate(73,62)"/>
<path d="M0 0 C0.33 0 0.66 0 1 0 C1.2475 1.11375 1.495 2.2275 1.75 3.375 C2.61005339 7.04615198 2.61005339 7.04615198 5.125 8.4375 C5.74375 8.623125 6.3625 8.80875 7 9 C4.69 9.33 2.38 9.66 0 10 C0 6.7 0 3.4 0 0 Z " fill="#BB5737" transform="translate(100,71)"/>
<path d="M0 0 C0.99 0.33 1.98 0.66 3 1 C2.67 3.31 2.34 5.62 2 8 C0 5 0 5 0 3 C-1.65 3 -3.3 3 -5 3 C-5 2.67 -5 2.34 -5 2 C-3.35 2 -1.7 2 0 2 C0 1.34 0 0.68 0 0 Z " fill="#B84F2D" transform="translate(74,59)"/>
<path d="M0 0 C-1.44253657 3.36591866 -3.33264727 5.51047079 -6 8 C-6.33 7.01 -6.66 6.02 -7 5 C-2.25 0 -2.25 0 0 0 Z " fill="#CE856E" transform="translate(33,29)"/>
<path d="M0 0 C4.95 0.33 9.9 0.66 15 1 C15 1.33 15 1.66 15 2 C8.565 2.495 8.565 2.495 2 3 C1.34 2.01 0.68 1.02 0 0 Z " fill="#D79C89" transform="translate(66,11)"/>
<path d="M0 0 C2.125 0.9375 2.125 0.9375 4 2 C4 2.66 4 3.32 4 4 C1.69 4 -0.62 4 -3 4 C-2.67 3.01 -2.34 2.02 -2 1 C-1.34 0.67 -0.68 0.34 0 0 Z " fill="#BC5D3F" transform="translate(100,90)"/>
<path d="M0 0 C5.75 1.75 5.75 1.75 8 4 C5.36 3.67 2.72 3.34 0 3 C0 2.01 0 1.02 0 0 Z " fill="#B9502E" transform="translate(98,65)"/>
</svg>
